<svg width="51" height="45" viewBox="0 0 51 45" fill="none" xmlns="http://www.w3.org/2000/svg">
<g id="Group 1">
<path id="Vector" d="M45.1347 17.5532C46.9359 18.4805 48.3963 19.8562 49.3379 21.5128C50.2796 23.1694 50.6616 25.0351 50.4376 26.8824C50.2136 28.7298 49.3931 30.4789 48.0762 31.9165C46.7593 33.3542 45.003 34.4181 43.0214 34.9787C42.321 37.8202 40.5562 40.3625 38.0192 42.185C35.4822 44.0074 32.325 45.0005 29.0705 45H23.7158C23.2424 45 22.7884 44.8319 22.4537 44.5326C22.1189 44.2334 21.9309 43.8275 21.9309 43.4043C21.9309 42.981 22.1189 42.5752 22.4537 42.2759C22.7884 41.9766 23.2424 41.8085 23.7158 41.8085H29.0705C31.286 41.8091 33.4472 41.1956 35.2565 40.0525C37.0658 38.9093 38.4342 37.2928 39.1731 35.4255H37.9951C37.5217 35.4255 37.0677 35.2574 36.733 34.9582C36.3982 34.6589 36.2102 34.253 36.2102 33.8298V17.8723C36.2102 17.4491 36.3982 17.0432 36.733 16.744C37.0677 16.4447 37.5217 16.2766 37.9951 16.2766H39.78C40.3583 16.2766 40.9259 16.3181 41.4828 16.3979C41.081 12.8582 39.2238 9.57782 36.2711 7.19241C33.3184 4.807 29.4804 3.48635 25.5007 3.48635C21.521 3.48635 17.683 4.807 14.7303 7.19241C11.7776 9.57782 9.92044 12.8582 9.51859 16.3979C10.0817 16.3172 10.6511 16.2766 11.2214 16.2766H13.0063C13.4797 16.2766 13.9337 16.4447 14.2684 16.744C14.6032 17.0432 14.7912 17.4491 14.7912 17.8723V33.8298C14.7912 34.253 14.6032 34.6589 14.2684 34.9582C13.9337 35.2574 13.4797 35.4255 13.0063 35.4255H11.2214C8.86168 35.4279 6.56716 34.7334 4.69433 33.45C2.8215 32.1666 1.47523 30.3661 0.864682 28.3283C0.254137 26.2905 0.413506 24.1295 1.31803 22.181C2.22255 20.2325 3.82157 18.6057 5.86666 17.5532C5.86666 12.8978 7.93525 8.43307 11.6173 5.14121C15.2994 1.84935 20.2934 0 25.5007 0C30.708 0 35.702 1.84935 39.3841 5.14121C43.0662 8.43307 45.1347 12.8978 45.1347 17.5532ZM11.2214 19.4681C9.32785 19.4681 7.51185 20.1406 6.17291 21.3376C4.83396 22.5347 4.08175 24.1582 4.08175 25.8511C4.08175 27.5439 4.83396 29.1675 6.17291 30.3645C7.51185 31.5616 9.32785 32.234 11.2214 32.234V19.4681ZM46.9196 25.8511C46.9196 24.1582 46.1674 22.5347 44.8285 21.3376C43.4895 20.1406 41.6735 19.4681 39.78 19.4681V32.234C41.6735 32.234 43.4895 31.5616 44.8285 30.3645C46.1674 29.1675 46.9196 27.5439 46.9196 25.8511Z" fill="#333740"/>
<path id="Vector_2" fill-rule="evenodd" clip-rule="evenodd" d="M20.0364 27.5887C19.9543 27.4698 19.8484 27.368 19.725 27.2892C19.6017 27.2103 19.4633 27.1561 19.3179 27.1296C19.1726 27.1031 19.0232 27.1049 18.8786 27.1348C18.734 27.1648 18.597 27.2223 18.4757 27.3041C18.3544 27.3859 18.2512 27.4902 18.1721 27.611C18.0931 27.7318 18.0398 27.8666 18.0153 28.0075C17.9908 28.1485 17.9957 28.2927 18.0297 28.4318C18.0637 28.5709 18.126 28.7021 18.2131 28.8176C19.0325 29.9545 20.1243 30.8831 21.3954 31.5243C22.6664 32.1654 24.0791 32.5002 25.513 32.5C28.537 32.5 31.2052 31.0412 32.8129 28.8176C32.9744 28.5838 33.0347 28.2981 32.9807 28.0219C32.9268 27.7457 32.7629 27.5009 32.5243 27.3401C32.2857 27.1792 31.9913 27.1152 31.7044 27.1617C31.4175 27.2081 31.1608 27.3614 30.9895 27.5887C30.3749 28.4418 29.5559 29.1386 28.6023 29.6197C27.6486 30.1007 26.5887 30.3519 25.513 30.3516C24.4372 30.3519 23.3773 30.1007 22.4237 29.6197C21.4701 29.1386 20.651 28.4418 20.0364 27.5887ZM20.788 22.5098C21.304 22.5098 21.7988 22.3117 22.1637 21.9592C22.5286 21.6066 22.7335 21.1285 22.7335 20.6299C22.7335 20.1313 22.5286 19.6532 22.1637 19.3006C21.7988 18.9481 21.304 18.75 20.788 18.75C20.2719 18.75 19.7771 18.9481 19.4122 19.3006C19.0473 19.6532 18.8424 20.1313 18.8424 20.6299C18.8424 21.1285 19.0473 21.6066 19.4122 21.9592C19.7771 22.3117 20.2719 22.5098 20.788 22.5098ZM32.1836 20.6299C32.1836 21.1285 31.9786 21.6066 31.6137 21.9592C31.2489 22.3117 30.754 22.5098 30.238 22.5098C29.722 22.5098 29.2271 22.3117 28.8622 21.9592C28.4974 21.6066 28.2924 21.1285 28.2924 20.6299C28.2924 20.1313 28.4974 19.6532 28.8622 19.3006C29.2271 18.9481 29.722 18.75 30.238 18.75C30.754 18.75 31.2489 18.9481 31.6137 19.3006C31.9786 19.6532 32.1836 20.1313 32.1836 20.6299Z" fill="#333740"/>
</g>
</svg>
