<svg width="270" height="52" viewBox="0 0 270 52" fill="none" xmlns="http://www.w3.org/2000/svg">
<path d="M267.642 15.84C268.829 15.84 269.691 16.9693 269.378 18.1146L260.836 49.3597C260.622 50.1423 259.911 50.685 259.1 50.685H247.23C246.401 50.685 245.68 50.1195 245.482 49.3151L242.338 36.537C241.891 34.7187 239.31 34.7072 238.846 36.5214L235.573 49.3306C235.37 50.1275 234.652 50.685 233.829 50.685H222.015C221.203 50.685 220.491 50.1407 220.278 49.3566L211.796 18.1115C211.486 16.967 212.347 15.84 213.533 15.84H222.667C223.537 15.84 224.282 16.4623 224.438 17.3183L226.836 30.524C227.185 32.4405 229.905 32.5156 230.358 30.6213L233.565 17.2211C233.758 16.4112 234.482 15.84 235.315 15.84H246.475C247.303 15.84 248.024 16.4044 248.222 17.2079L251.58 30.7861C252.046 32.6728 254.758 32.5832 255.099 30.6699L257.478 17.3241C257.631 16.4654 258.378 15.84 259.25 15.84H267.642Z" fill="#D1FF25"/>
<path d="M192.478 51.1199C188.748 51.1199 185.395 50.3952 182.42 48.946C179.489 47.4967 177.179 45.4263 175.492 42.7347C173.804 40.0432 172.96 36.8754 172.96 33.2315C172.96 29.629 173.804 26.482 175.492 23.7904C177.224 21.0989 179.555 19.0285 182.486 17.5792C185.462 16.1299 188.815 15.4053 192.545 15.4053C196.275 15.4053 199.606 16.1299 202.537 17.5792C205.513 19.0285 207.844 21.0989 209.532 23.7904C211.264 26.482 212.13 29.629 212.13 33.2315C212.13 36.834 211.264 40.0018 209.532 42.7347C207.844 45.4263 205.513 47.4967 202.537 48.946C199.562 50.3952 196.209 51.1199 192.478 51.1199ZM192.478 40.5608C194.299 40.5608 195.809 39.9397 197.008 38.6974C198.252 37.4138 198.873 35.5918 198.873 33.2315C198.873 30.8713 198.252 29.07 197.008 27.8277C195.809 26.5855 194.321 25.9644 192.545 25.9644C190.769 25.9644 189.281 26.5855 188.082 27.8277C186.883 29.07 186.283 30.8713 186.283 33.2315C186.283 35.6332 186.861 37.4552 188.015 38.6974C189.17 39.9397 190.658 40.5608 192.478 40.5608Z" fill="#D1FF25"/>
<path d="M156.537 15.5294C160.844 15.5294 164.264 16.8752 166.795 19.5667C169.327 22.2169 170.592 25.8194 170.592 30.3743V48.885C170.592 49.8791 169.786 50.685 168.792 50.685H159.336C158.342 50.685 157.536 49.8791 157.536 48.885V31.9892C157.536 30.0016 156.981 28.4488 155.871 27.3308C154.76 26.1713 153.273 25.5916 151.407 25.5916C149.453 25.5916 147.921 26.1713 146.811 27.3308C145.701 28.4488 145.146 30.0016 145.146 31.9892V48.885C145.146 49.8791 144.34 50.685 143.346 50.685H133.889C132.895 50.685 132.089 49.8791 132.089 48.885V17.64C132.089 16.6459 132.895 15.84 133.889 15.84H143.92C144.597 15.84 145.146 16.3889 145.146 17.066C145.146 18.2506 146.844 18.8887 147.809 18.2014C148.421 17.7654 149.088 17.3716 149.809 17.0201C151.763 16.0263 154.005 15.5294 156.537 15.5294Z" fill="#D1FF25"/>
<path d="M122.383 33.0877C122.383 33.5552 122.368 34.0226 122.337 34.49C122.277 35.3857 121.508 36.0468 120.611 36.0468H98.4715C97.4279 36.0468 96.5737 36.9431 96.8504 37.9494C97.1396 39.0014 97.6123 39.8468 98.2685 40.4854C99.3279 41.4288 100.664 41.9006 102.276 41.9006C104.126 41.9006 105.543 41.2668 106.526 39.9992C106.94 39.4657 107.538 39.0702 108.213 39.0702H119.269C120.434 39.0702 121.295 40.1648 120.858 41.2441C120.197 42.8753 119.254 44.3807 118.03 45.7602C116.326 47.69 114.161 49.2125 111.535 50.3275C108.909 51.4425 106.007 52 102.829 52C99.0055 52 95.5967 51.2495 92.6025 49.7485C89.6544 48.2476 87.3281 46.1033 85.6237 43.3158C83.9654 40.5283 83.1362 37.2476 83.1362 33.4737C83.1362 29.6998 83.9654 26.4406 85.6237 23.6959C87.282 20.9084 89.5853 18.7642 92.5334 17.2632C95.5276 15.7622 98.9594 15.0117 102.829 15.0117C106.652 15.0117 110.038 15.7408 112.986 17.1989C115.934 18.6569 118.237 20.7583 119.896 23.5029C121.554 26.2047 122.383 29.3996 122.383 33.0877ZM106.764 29.9357C107.758 29.9357 108.616 29.1014 108.27 28.1692C108.001 27.4422 107.546 26.8302 106.906 26.3333C105.8 25.4328 104.418 24.9825 102.76 24.9825C101.101 24.9825 99.7425 25.4113 98.683 26.269C98.1311 26.6935 97.6792 27.2285 97.3273 27.8741C96.7844 28.8701 97.6668 29.9357 98.8012 29.9357H106.764Z" fill="#D1FF25"/>
<path d="M64.9986 15.4659C69.3064 15.4659 72.7259 16.8117 75.2572 19.5032C77.7886 22.1534 79.0542 25.7559 79.0542 30.3108V48.8216C79.0542 49.8157 78.2483 50.6216 77.2542 50.6216H67.7979C66.8037 50.6216 65.9979 49.8157 65.9979 48.8216V31.9257C65.9979 29.9381 65.4427 28.3853 64.3325 27.2673C63.2223 26.1079 61.7346 25.5282 59.8694 25.5282C57.9153 25.5282 56.3832 26.1079 55.273 27.2673C54.1628 28.3853 53.6076 29.9381 53.6076 31.9257V48.8215C53.6076 49.8157 52.8017 50.6216 51.8076 50.6216H42.3513C41.3572 50.6216 40.5513 49.8157 40.5513 48.8216V17.5765C40.5513 16.5824 41.3572 15.7765 42.3513 15.7765H52.3817C53.0587 15.7765 53.6076 16.3254 53.6076 17.0025C53.6076 18.1872 55.3056 18.8252 56.2706 18.138C56.8828 17.7019 57.5495 17.3081 58.2706 16.9566C60.2246 15.9628 62.4673 15.4659 64.9986 15.4659Z" fill="#D1FF25"/>
<path d="M26.4106 12.5467C24.1013 12.5467 22.2361 11.967 20.815 10.8076C19.4383 9.60672 18.75 8.11602 18.75 6.33546C18.75 4.5135 19.4383 3.0021 20.815 1.80126C22.2361 0.600421 24.1013 0 26.4106 0C28.6755 0 30.4963 0.600421 31.873 1.80126C33.2941 3.0021 34.0046 4.5135 34.0046 6.33546C34.0046 8.11602 33.2941 9.60672 31.873 10.8076C30.4963 11.967 28.6755 12.5467 26.4106 12.5467ZM31.0722 15.7765C32.0663 15.7765 32.8722 16.5824 32.8722 17.5765V48.8216C32.8722 49.8157 32.0663 50.6216 31.0722 50.6216H21.6158C20.6217 50.6216 19.8158 49.8157 19.8158 48.8216V17.5765C19.8158 16.5824 20.6217 15.7765 21.6158 15.7765H31.0722Z" fill="#D1FF25"/>
<path d="M11.2056 0.0441895C12.1997 0.0441895 13.0056 0.850077 13.0056 1.84419V48.8214C13.0056 49.8155 12.1997 50.6214 11.2056 50.6214H1.8C0.805886 50.6214 0 49.8155 0 48.8214V1.84419C0 0.850075 0.805887 0.0441895 1.8 0.0441895H11.2056Z" fill="#D1FF25"/>
</svg>
